<?xml version="1.0" encoding="UTF-8" standalone="no"?>
<svg
   width="1024"
   height="1024"
   version="1.1"
   id="svg17"
   sodipodi:docname="icon.svg"
   inkscape:version="1.2.2 (b0a8486541, 2022-12-01)"
   inkscape:export-filename="icon.png"
   inkscape:export-xdpi="6"
   inkscape:export-ydpi="6"
   xmlns:inkscape="http://www.inkscape.org/namespaces/inkscape"
   xmlns:sodipodi="http://sodipodi.sourceforge.net/DTD/sodipodi-0.dtd"
   xmlns="http://www.w3.org/2000/svg"
   xmlns:svg="http://www.w3.org/2000/svg">
  <defs
     id="defs21" />
  <sodipodi:namedview
     id="namedview19"
     pagecolor="#ffffff"
     bordercolor="#666666"
     borderopacity="1.0"
     inkscape:showpageshadow="2"
     inkscape:pageopacity="0.0"
     inkscape:pagecheckerboard="0"
     inkscape:deskcolor="#d1d1d1"
     showgrid="false"
     inkscape:zoom="0.4609375"
     inkscape:cx="6.5084746"
     inkscape:cy="610.71186"
     inkscape:window-width="1920"
     inkscape:window-height="1028"
     inkscape:window-x="0"
     inkscape:window-y="0"
     inkscape:window-maximized="1"
     inkscape:current-layer="svg17" />
  <path
     fill="#013C58"
     d="M0 0L1024 0L1024 1024L0 1024L0 0Z"
     id="path9" />
  <g
     id="g183"
     transform="translate(-2.1694915,20.508475)">
    <path
       fill="#ffba42"
       d="m 368.07661,175.93334 177.8367,-0.0854 59.34991,0.0399 c 10.8039,0.0138 21.95626,-0.44335 32.72211,0.30703 0.33173,-0.0165 0.66498,-0.0441 0.9967,-0.0509 20.89261,-0.47639 41.96781,0.0675 62.88324,0.0633 15.34306,-0.003 40.3594,-1.62191 54.57338,1.29286 10.30478,2.11207 20.24741,7.04666 27.87101,13.64998 14.80286,12.82251 20.25654,28.74703 20.61109,46.82218 0.57976,29.57864 0.20086,59.21787 0.1826,88.80339 v 151.40278 l 0.0989,74.23781 c 0.0152,14.29985 1.26147,29.76727 -1.2219,43.87436 -1.92036,10.91146 -9.53787,23.08547 -18.01664,30.9252 -20.90022,19.32394 -48.20821,17.04389 -75.59076,17.36057 q 0.27542,74.72658 -0.33172,149.45179 c -7.29796,-5.22924 -13.9066,-11.31762 -20.73131,-17.0439 l -32.68711,-27.26004 q -47.58584,-39.83334 -95.70274,-79.14073 c -10.85412,-8.91504 -21.37955,-18.18668 -32.38583,-26.94338 -53.4245,-0.48602 -106.96161,0.12805 -160.39677,0.23407 -18.78052,0.0372 -55.44073,1.79677 -71.94026,-1.15517 -10.10392,-1.80779 -20.17285,-7.00536 -27.54537,-13.45035 -12.83838,-11.22399 -19.31158,-26.35683 -19.55809,-42.35984 q -0.25869,-42.12991 0.0426,-84.25982 l -0.0624,-165.20009 -0.008,-73.87845 c -0.0152,-13.19012 -1.36647,-27.65107 0.86735,-40.62502 1.96601,-11.42364 7.90967,-22.6201 16.93929,-30.83983 18.38032,-16.73549 39.37792,-16.34033 63.61974,-16.28801 z"
       id="path11"
       style="stroke-width:1.44745" />
    <path
       fill="#f5a201"
       d="m 368.07661,175.93334 177.8367,-0.0854 59.34991,0.0399 c 10.8039,0.0138 21.95626,-0.44335 32.72211,0.30703 -6.40169,0.61545 -13.1701,0.23406 -19.61744,0.2437 0.63911,13.84275 0.26173,27.77085 0.24956,41.62461 l 0.0685,65.3035 -0.0107,66.23699 c -0.0456,12.19329 0.24956,24.5642 -0.4702,36.73821 -0.11869,2.02395 -0.25412,3.63899 -1.32385,5.45779 -2.10144,3.56877 -6.31496,6.20955 -10.62282,7.11964 -2.92923,0.61958 -5.40347,0.46812 -8.09836,-0.77378 -8.64616,-3.98733 -16.40823,-11.4498 -23.78835,-17.12651 -16.63192,-12.79497 -33.4023,-26.64598 -51.60002,-37.57808 -8.56095,3.95704 -15.20763,9.85542 -22.38233,15.54176 -9.22135,7.30689 -18.74552,14.29435 -28.00948,21.55856 -7.21883,5.66018 -14.44831,12.45489 -22.50254,17.02324 -2.51989,1.42778 -4.93783,2.40671 -7.95075,2.4673 -4.46308,0.0895 -8.9855,-1.64395 -12.15058,-4.4706 -3.45725,-3.08963 -4.12374,-6.40231 -4.61676,-10.61819 -1.05909,-9.04721 -0.50064,-18.47581 -0.48085,-27.58085 l 0.0152,-43.96799 -0.68019,-136.88538 c -14.95959,-0.0537 -42.49735,1.50902 -55.93679,-0.57552 z"
       id="path13"
       style="stroke-width:1.44745" />
  </g>
</svg>
